<?xml version="1.0" encoding="utf-8" ?><svg xmlns="http://www.w3.org/2000/svg" xmlns:xlink="http://www.w3.org/1999/xlink" version="1.1" height="360" width="235" viewBox="0 0 235 360">
<defs>
<pattern id="verticalStripes" patternUnits="userSpaceOnUse" width="10" height="10"> <rect width="4" height="10" fill="red" /> </pattern>
<style type="text/css"> .setline {	stroke: red;	stroke-width: 4;	stroke-linejoin: round;} </style>
<path class="setcolor setline" id="shape" d="m 33,180 c 6,-13 11,-23 26,-28 15,-5 31,-1 58,7 23,7 36,0 43,-3 7,-4 17,-9 30,-9 13,0 18,21 12,33 -5,11 -14,23 -26,28 -12,5 -32,1 -59,-7 -17,-5 -29,-3 -42,3 -9,4 -18,10 -30,9 -13,0 -19,-18 -12,-33 z"></path>
</defs>
<use y="-50" xlink:href="#shape" fill="url(#verticalStripes)"/><use y="50" xlink:href="#shape" fill="url(#verticalStripes)"/>
</svg>